<svg height="457pt" viewBox="0 0 457.14366 457" width="457pt" xmlns="http://www.w3.org/2000/svg"><path d="m393.019531 67.59375v270.875h-383.875v-329.253906h111.164063l31.988281 58.378906zm0 0" fill="#ffd766"/><path d="m393.019531 347.613281h-383.875c-5.050781 0-9.144531-4.09375-9.144531-9.144531v-329.253906c0-5.050782 4.09375-9.1445315 9.144531-9.1445315h111.164063c3.339844 0 6.414062 1.8242185 8.019531 4.7499995l29.382813 53.632813h235.308593c5.046875 0 9.140625 4.09375 9.140625 9.140625v270.875c0 5.050781-4.09375 9.144531-9.140625 9.144531zm-374.734375-18.285156h365.589844v-252.589844h-231.578125c-3.339844 0-6.417969-1.824219-8.019531-4.75l-29.382813-53.628906h-96.609375zm0 0" fill="#2a3d4f"/><path d="m448 124.296875-54.980469 214.171875h-383.875l54.980469-214.171875zm0 0" fill="#fcdd40"/><path d="m393.019531 347.613281h-383.875c-2.828125 0-5.492187-1.308593-7.222656-3.542969-1.734375-2.230468-2.335937-5.136718-1.636719-7.875l54.984375-214.171874c1.039063-4.046876 4.683594-6.871094 8.855469-6.871094h383.875c2.828125 0 5.492188 1.308594 7.222656 3.539062 1.734375 2.234375 2.335938 5.140625 1.636719 7.875l-54.984375 214.175782c-1.039062 4.042968-4.683594 6.871093-8.855469 6.871093zm-372.089843-18.285156h364.996093l50.289063-195.890625h-364.996094zm0 0" fill="#2a3d4f"/><path d="m414.933594 363.429688c-1.390625 4.492187-3.207032 8.773437-5.347656 12.839843l14.015624 32.746094-14.660156 14.660156-32.851562-14.019531c-4.066406 2.246094-8.34375 3.957031-12.839844 5.351562l-13.269531 33.0625h-20.757813l-13.269531-33.0625c-4.492187-1.394531-8.667969-3.105468-12.734375-5.351562l-32.851562 14.019531-14.660157-14.660156 14.019531-32.851563c-2.140624-4.066406-3.960937-8.347656-5.351562-12.734374l-33.0625-13.375v-20.652344l33.0625-13.378906c1.390625-4.492188 3.105469-8.667969 5.351562-12.734376l-14.019531-32.847656 14.660157-14.660156 32.851562 14.015625c4.066406-2.246094 8.242188-3.957031 12.734375-5.351563l13.269531-33.0625h20.757813l13.269531 33.0625c4.496094 1.394532 8.773438 3.210938 12.839844 5.351563l32.851562-14.015625 14.660156 14.660156-14.015624 32.742188c2.140624 4.066406 3.957031 8.347656 5.347656 12.839844l33.066406 13.378906v20.652344zm0 0" fill="#4b6981"/><path d="m349.984375 457.214844h-20.761719c-3.734375 0-7.09375-2.273438-8.484375-5.738282l-11.703125-29.160156c-2.128906-.785156-4.175781-1.636718-6.160156-2.574218l-28.917969 12.34375c-3.429687 1.453124-7.417969.691406-10.054687-1.945313l-14.65625-14.664063c-2.644532-2.636718-3.410156-6.617187-1.945313-10.050781l12.363281-28.980469c-.9375-2.011718-1.792968-4.046874-2.5625-6.097656l-29.21875-11.816406c-3.453124-1.398438-5.710937-4.75-5.710937-8.476562v-20.652344c0-3.722656 2.257813-7.074219 5.710937-8.472656l29.179688-11.808594c.785156-2.144532 1.644531-4.191406 2.578125-6.175782l-12.339844-28.917968c-1.464843-3.433594-.691406-7.414063 1.945313-10.054688l14.65625-14.65625c2.636718-2.640625 6.621094-3.402344 10.054687-1.945312l28.917969 12.339844c1.976562-.933594 4.023438-1.785157 6.15625-2.570313l11.707031-29.164063c1.390625-3.460937 4.75-5.734374 8.484375-5.734374h20.761719c3.734375 0 7.09375 2.273437 8.484375 5.734374l11.707031 29.175782c2.074219.773437 4.144531 1.632812 6.195313 2.585937l28.980468-12.367187c3.425782-1.460938 7.414063-.699219 10.054688 1.945312l14.660156 14.65625c2.644532 2.644532 3.410156 6.625 1.941406 10.0625l-12.359374 28.875c.953124 2.054688 1.816406 4.125 2.589843 6.207032l29.191407 11.8125c3.453124 1.398437 5.714843 4.75 5.714843 8.472656v20.652344c0 3.726562-2.261719 7.078124-5.714843 8.476562l-29.191407 11.804688c-.773437 2.074218-1.636719 4.148437-2.589843 6.203124l12.359374 28.875c1.46875 3.4375.703126 7.421876-1.941406 10.0625l-14.660156 14.664063c-2.640625 2.640625-6.609375 3.40625-10.054688 1.945313l-28.925781-12.34375c-1.996093.929687-4.074219 1.789062-6.261719 2.585937l-11.695312 29.148437c-1.390625 3.464844-4.75 5.738282-8.484375 5.738282zm-14.578125-18.285156h8.394531l10.964844-27.332032c1.023437-2.558594 3.15625-4.515625 5.789063-5.328125 4.210937-1.300781 7.84375-2.808593 11.117187-4.617187 2.457031-1.363282 5.410156-1.519532 8.007813-.40625l27.167968 11.59375 5.917969-5.914063-11.585937-27.058593c-1.082032-2.53125-.96875-5.414063.3125-7.851563 1.964843-3.734375 3.546874-7.53125 4.703124-11.28125.8125-2.625 2.761719-4.75 5.308594-5.78125l27.355469-11.0625v-8.324219l-27.355469-11.070312c-2.546875-1.027344-4.496094-3.148438-5.308594-5.773438-1.160156-3.757812-2.742187-7.558594-4.703124-11.285156-1.28125-2.4375-1.394532-5.320312-.3125-7.851562l11.585937-27.058594-5.917969-5.910156-27.167968 11.59375c-2.535157 1.066406-5.414063.960937-7.851563-.320313-3.707031-1.953125-7.5-3.539063-11.28125-4.710937-2.632813-.8125-4.757813-2.773438-5.78125-5.328126l-10.964844-27.324218h-8.394531l-10.96875 27.324218c-1.027344 2.554688-3.148438 4.511719-5.777344 5.328126-4.078125 1.261718-7.683594 2.777343-11.015625 4.621093-2.464843 1.355469-5.429687 1.511719-8.015625.410157l-27.167968-11.59375-5.914063 5.914062 11.59375 27.171875c1.101563 2.59375.953125 5.546875-.414063 8.011719-1.84375 3.335937-3.355468 6.9375-4.617187 11.019531-.8125 2.617187-2.761719 4.734375-5.304687 5.761719l-27.347657 11.070312v8.324219l27.347657 11.0625c2.523437 1.019531 4.464843 3.113281 5.285156 5.707031 1.199218 3.78125 2.789062 7.5625 4.726562 11.238282 1.28125 2.4375 1.402344 5.320312.324219 7.851562l-11.59375 27.171875 5.917969 5.917969 27.164062-11.59375c2.589844-1.097656 5.550782-.945313 8.011719.40625 3.355469 1.851562 6.957031 3.367187 11.011719 4.617187 2.632812.816407 4.757812 2.769531 5.785156 5.328125zm0 0" fill="#2a3d4f"/><path d="m373.328125 339.695312c0 18.652344-15.140625 33.726563-33.726563 33.726563-18.585937 0-33.726562-15.074219-33.726562-33.726563 0-18.585937 15.140625-33.660156 33.726562-33.660156 18.585938 0 33.726563 15.074219 33.726563 33.660156zm0 0" fill="#e7e4f3"/><path d="m339.601562 382.5625c-23.636718 0-42.867187-19.226562-42.867187-42.867188 0-23.601562 19.230469-42.804687 42.867187-42.804687 23.640626 0 42.867188 19.203125 42.867188 42.804687 0 23.640626-19.226562 42.867188-42.867188 42.867188zm0-67.386719c-13.554687 0-24.582031 11-24.582031 24.519531 0 13.554688 11.027344 24.582032 24.582031 24.582032 13.554688 0 24.582032-11.027344 24.582032-24.582032 0-13.519531-11.027344-24.519531-24.582032-24.519531zm0 0" fill="#2a3d4f"/></svg>