<svg id="_x31__x2C_5" enable-background="new 0 0 24 24" height="512" viewBox="0 0 24 24" width="512" xmlns="http://www.w3.org/2000/svg"><path d="m18.5 7.25h-15c-1.519 0-2.75-1.231-2.75-2.75 0-1.519 1.231-2.75 2.75-2.75h15c1.519 0 2.75 1.231 2.75 2.75 0 1.519-1.231 2.75-2.75 2.75z" fill="#cfd8dc"/><path d="m18.5 12.75h-15c-1.519 0-2.75-1.231-2.75-2.75 0-1.519 1.231-2.75 2.75-2.75h15c1.519 0 2.75 1.231 2.75 2.75 0 1.519-1.231 2.75-2.75 2.75z" fill="#90a4ae"/><path d="m18.5 18.25h-15c-1.519 0-2.75-1.231-2.75-2.75 0-1.519 1.231-2.75 2.75-2.75h15c1.519 0 2.75 1.231 2.75 2.75 0 1.519-1.231 2.75-2.75 2.75z" fill="#cfd8dc"/><path d="m22.903 12.38-4.687-1.594c-.14-.048-.291-.048-.431 0l-4.687 1.594c-.272.092-.454.347-.454.634v3.587c0 4.379 4.887 6.507 5.095 6.595.168.071.355.071.523 0 .208-.088 5.095-2.216 5.095-6.595v-3.587c0-.287-.182-.541-.454-.634z" fill="#4caf50"/><path d="m18.5 8h-15c-1.93 0-3.5-1.57-3.5-3.5s1.57-3.5 3.5-3.5h15c1.93 0 3.5 1.57 3.5 3.5s-1.57 3.5-3.5 3.5zm-15-5.5c-1.103 0-2 .897-2 2s.897 2 2 2h15c1.103 0 2-.897 2-2s-.897-2-2-2z"/><circle cx="5" cy="4.5" r="1"/><circle cx="9" cy="4.5" r="1"/><path d="m9.25 13.5h-5.75c-1.93 0-3.5-1.57-3.5-3.5 0-.929.377-1.831 1.034-2.476.635-.647 1.537-1.024 2.466-1.024h15c.974 0 1.901.407 2.546 1.116.278.307.255.781-.052 1.06-.307.277-.779.256-1.06-.052-.365-.402-.874-.624-1.434-.624h-15c-.536 0-1.035.208-1.405.585-.387.38-.595.879-.595 1.415 0 1.103.897 2 2 2h5.75c.414 0 .75.336.75.75s-.336.75-.75.75z"/><circle cx="5" cy="10" r="1"/><circle cx="9" cy="10" r="1"/><path d="m9.25 19h-5.75c-1.93 0-3.5-1.57-3.5-3.5 0-.929.377-1.831 1.034-2.476.635-.647 1.537-1.024 2.466-1.024h5.25c.414 0 .75.336.75.75s-.336.75-.75.75h-5.25c-.536 0-1.035.208-1.405.585-.387.38-.595.879-.595 1.415 0 1.103.897 2 2 2h5.75c.414 0 .75.336.75.75s-.336.75-.75.75z"/><circle cx="5" cy="15.5" r="1"/><circle cx="9" cy="15.5" r="1"/><path d="m18 24c-.104 0-.207-.021-.304-.064-.232-.103-5.696-2.578-5.696-7.65v-3.929c0-.33.215-.621.53-.717l5.25-1.607c.143-.045.297-.045.439 0l5.25 1.607c.315.096.53.387.53.717v3.929c0 5.072-5.464 7.547-5.696 7.649-.096.044-.199.065-.303.065zm-4.5-11.088v3.374c0 3.494 3.442 5.571 4.499 6.127 1.056-.558 4.501-2.646 4.501-6.127v-3.374l-4.5-1.378z"/><path d="m17.5 19c-.199 0-.39-.079-.53-.22l-1.75-1.75c-.293-.293-.293-.768 0-1.061s.768-.293 1.061 0l1.2 1.199 2.72-2.93c.283-.304.757-.32 1.061-.039.303.282.32.757.039 1.061l-3.25 3.5c-.139.148-.332.235-.536.239-.006.001-.01.001-.015.001z"/></svg>